<svg width="46.000000" height="46.000000" viewBox="0 0 46 46" fill="none" xmlns="http://www.w3.org/2000/svg" xmlns:xlink="http://www.w3.org/1999/xlink">
	<desc>
			Created with Pixso.
	</desc>
	<defs/>
	<rect id="Rectangle 400" width="46.000000" height="46.000000" fill="#C4C4C4" fill-opacity="0"/>
	<path id="Vector" d="M36.58 10.63C36.08 7.94 33.76 6 31 6L26.6 6C23.89 6 21.58 7.94 21.01 10.63C20.34 10.86 19.83 11.49 19.83 12.24C19.83 12.7 20 13.1 20.28 13.38C20 13.67 19.83 14.07 19.83 14.53C19.83 15.27 20.34 15.96 21.01 16.13C21.52 18.83 23.83 20.77 26.6 20.77L31 20.77C33.71 20.77 36.02 18.83 36.58 16.13C37.26 15.9 37.77 15.27 37.77 14.53C37.77 14.07 37.6 13.67 37.32 13.38C37.6 13.1 37.77 12.7 37.77 12.24C37.83 11.49 37.32 10.86 36.58 10.63ZM26.6 7.14L31 7.14C33.09 7.14 34.84 8.57 35.4 10.58L35.17 10.58L35.06 10.46C34.84 10.12 34.44 10 34.05 10L33.71 10C33.31 10 32.92 10.18 32.64 10.46C32.58 10.52 32.47 10.58 32.35 10.58L32.01 10.58C31.9 10.58 31.79 10.52 31.73 10.46C31.45 10.12 31.06 10 30.66 10L30.32 10C29.93 10 29.53 10.18 29.25 10.46C29.19 10.52 29.08 10.58 28.97 10.58L28.63 10.58C28.52 10.58 28.4 10.52 28.35 10.46C28.12 10.12 27.73 10 27.33 10L26.99 10C26.6 10 26.2 10.18 25.92 10.46C25.87 10.52 25.75 10.58 25.64 10.58L25.3 10.58C25.19 10.58 25.08 10.52 25.02 10.46C24.74 10.12 24.34 10 23.95 10L23.61 10C23.21 10 22.82 10.18 22.54 10.46L22.42 10.52L22.25 10.52C22.76 8.57 24.57 7.14 26.6 7.14ZM21.52 11.67L22.88 11.67L23.33 11.21C23.44 11.15 23.5 11.09 23.61 11.09L23.95 11.09C24.06 11.09 24.17 11.15 24.23 11.21C24.51 11.49 24.91 11.67 25.3 11.67L25.64 11.67C26.04 11.67 26.43 11.49 26.71 11.21C26.77 11.15 26.88 11.09 26.99 11.09L27.33 11.09C27.45 11.09 27.56 11.15 27.61 11.21C27.9 11.49 28.29 11.67 28.69 11.67L29.02 11.67C29.42 11.67 29.81 11.49 30.1 11.21C30.15 11.15 30.27 11.09 30.32 11.09L30.66 11.09C30.77 11.09 30.89 11.15 30.94 11.21C31.22 11.49 31.62 11.67 32.01 11.67L32.35 11.67C32.75 11.67 33.14 11.49 33.42 11.21C33.48 11.15 33.59 11.09 33.71 11.09L34.05 11.09C34.16 11.09 34.27 11.15 34.33 11.21L34.78 11.67L36.13 11.67C36.41 11.67 36.7 11.89 36.7 12.24C36.7 12.58 36.47 12.81 36.13 12.81L21.52 12.81C21.24 12.81 20.96 12.58 20.96 12.24C20.96 11.89 21.24 11.67 21.52 11.67ZM31.06 19.63L26.66 19.63C24.57 19.63 22.82 18.2 22.25 16.19L35.46 16.19C34.89 18.25 33.14 19.63 31.06 19.63ZM36.13 15.1L21.52 15.1C21.24 15.1 20.96 14.87 20.96 14.53C20.96 14.19 21.18 13.96 21.52 13.96L36.08 13.96C36.36 13.96 36.64 14.19 36.64 14.53C36.64 14.87 36.41 15.1 36.13 15.1Z" fill="#E7426A" fill-opacity="1.000000" fill-rule="nonzero"/>
	<path id="Vector" d="M4.63 27.86L6.93 25.82C7.71 25.13 8.9 25.2 9.59 25.98L9.63 26.03C10.39 25 11.27 24.03 12.28 23.25C14.61 21.45 17.84 20.53 20.51 22.17C22 23.08 23.66 23.82 25.39 24.13L30.55 24.13C31.66 24.13 32.49 24.79 32.75 25.83L38.25 21.08C39.25 20.21 40.56 20.38 41.4 21.34C42.24 22.32 42.21 23.68 41.2 24.55L32.05 32.49C30.59 33.76 28.94 34.41 27.01 34.51L17.39 34.96C17.67 35.69 17.47 36.53 16.88 37.05L14.57 39.09C13.8 39.78 12.6 39.71 11.91 38.93L4.47 30.52C3.78 29.75 3.85 28.54 4.63 27.86ZM32.53 27.59C32.18 28.24 31.52 28.72 30.55 28.72L19.32 28.72C18.99 28.72 18.72 28.45 18.72 28.13C18.72 27.8 18.99 27.53 19.32 27.53L30.55 27.53C31.22 27.53 31.63 27.07 31.63 26.43C31.63 25.8 31.23 25.32 30.55 25.32L25.34 25.32L25.24 25.31C23.33 24.98 21.54 24.18 19.89 23.18C17.66 21.82 14.93 22.71 13.01 24.19C12.01 24.96 11.17 25.92 10.44 26.94L16.53 33.81L26.95 33.32C28.61 33.24 30.02 32.68 31.27 31.59L40.42 23.66C40.92 23.22 40.91 22.59 40.5 22.12C40.1 21.65 39.51 21.55 39.02 21.97L32.53 27.59ZM7.72 26.71L5.42 28.75C5.14 29 5.1 29.42 5.33 29.71L12.8 38.14C13.05 38.43 13.5 38.45 13.79 38.2L16.09 36.16C16.38 35.91 16.4 35.46 16.15 35.17C13.67 32.37 11.18 29.57 8.7 26.77C8.45 26.48 8 26.46 7.72 26.71Z" fill="#EE3686" fill-opacity="1.000000" fill-rule="nonzero"/>
	<path id="Vector" d="M8.92 25.5C8.27 25.22 7.49 25.32 6.93 25.82L4.63 27.86C3.85 28.54 3.78 29.75 4.47 30.52L11.91 38.93C12.6 39.71 13.8 39.78 14.57 39.09L16.88 37.05C17.2 36.76 17.41 36.37 17.48 35.96C17.54 35.63 17.51 35.29 17.39 34.96L18.42 34.91L27.01 34.51C28.94 34.41 30.59 33.76 32.05 32.49L41.2 24.55C42.21 23.68 42.24 22.32 41.4 21.34C40.56 20.38 39.25 20.21 38.25 21.08L33.57 25.12L32.75 25.83C32.66 25.47 32.5 25.16 32.29 24.9C31.89 24.41 31.28 24.13 30.55 24.13L25.39 24.13C23.66 23.82 22 23.08 20.51 22.17C17.84 20.53 14.61 21.45 12.28 23.25C11.54 23.82 10.86 24.5 10.26 25.23C10.04 25.49 9.83 25.76 9.63 26.03L9.59 25.98C9.4 25.77 9.17 25.6 8.92 25.5ZM25.34 25.32L25.24 25.31C23.33 24.98 21.54 24.18 19.89 23.18C17.66 21.82 14.93 22.71 13.01 24.19C12.01 24.96 11.17 25.92 10.44 26.94L16.53 33.81L26.95 33.32C28.61 33.24 30.02 32.68 31.27 31.59L40.42 23.66C40.92 23.22 40.91 22.59 40.5 22.12C40.1 21.65 39.51 21.55 39.02 21.97L32.53 27.59C32.18 28.24 31.52 28.72 30.55 28.72L19.32 28.72C18.99 28.72 18.72 28.45 18.72 28.13C18.72 27.8 18.99 27.53 19.32 27.53L30.55 27.53C31.22 27.53 31.63 27.07 31.63 26.43C31.63 25.8 31.23 25.32 30.55 25.32L25.34 25.32ZM7.72 26.71L5.42 28.75C5.14 29 5.1 29.42 5.33 29.71L12.8 38.14C13.05 38.43 13.5 38.45 13.79 38.2L16.09 36.16C16.38 35.91 16.4 35.46 16.15 35.17C13.67 32.37 11.18 29.57 8.7 26.77C8.45 26.48 8 26.46 7.72 26.71Z" fill="#E7426A" fill-opacity="1.000000" fill-rule="evenodd"/>
</svg>
